<?xml version="1.0" encoding="UTF-8" standalone="no"?>
<!-- Created with Inkscape (http://www.inkscape.org/) -->

<svg
   width="139.0262mm"
   height="154.31502mm"
   viewBox="0 0 139.0262 154.31502"
   version="1.1"
   id="svg5"
   xmlns="http://www.w3.org/2000/svg"
   xmlns:svg="http://www.w3.org/2000/svg">
  <defs
     id="defs2" />
  <g
     id="layer1"
     transform="translate(-45.010098,-65.877731)">
    <path
       d="m 114.7197,89.593945 h -0.393 c -0.74577,0 -1.35078,-0.605015 -1.35078,-1.350788 V 67.228519 c 0,-0.746126 0.60501,-1.350788 1.35078,-1.350788 h 0.393 c 0.74612,0 1.35078,0.604662 1.35078,1.350788 v 21.014638 c 0,0.745773 -0.60466,1.350788 -1.35078,1.350788"
       style="fill:#fece2f;fill-opacity:1;fill-rule:nonzero;stroke:none;stroke-width:0.0352778"
       id="path19" />
    <path
       d="m 91.794784,95.631036 -0.34043,0.196498 c -0.645936,0.373239 -1.471789,0.151694 -1.845028,-0.494242 L 79.102086,77.134175 c -0.372921,-0.64629 -0.151589,-1.472143 0.494418,-1.845382 l 0.340254,-0.196145 c 0.646042,-0.373239 1.472248,-0.152047 1.845134,0.494242 l 10.507487,18.199117 c 0.372886,0.646289 0.151341,1.472143 -0.494595,1.845029"
       style="fill:#fece2f;fill-opacity:1;fill-rule:nonzero;stroke:none;stroke-width:0.0352778"
       id="path21" />
    <path
       d="m 74.960122,112.32238 -0.196674,0.34008 c -0.372886,0.64593 -1.199021,0.86748 -1.845028,0.49459 L 54.719354,102.64956 c -0.646183,-0.37289 -0.86748,-1.1991 -0.494453,-1.84503 l 0.196356,-0.34043 c 0.373204,-0.646293 1.199339,-0.867485 1.845204,-0.494246 L 74.465527,110.477 c 0.646148,0.37324 0.867481,1.19909 0.494595,1.84538"
       style="fill:#fece2f;fill-opacity:1;fill-rule:nonzero;stroke:none;stroke-width:0.0352778"
       id="path23" />
    <path
       d="m 68.72615,135.19439 v 0.393 c 0,0.74613 -0.604837,1.35079 -1.350751,1.35079 H 46.360852 c -0.745934,0 -1.350754,-0.60466 -1.350754,-1.35079 v -0.393 c 0,-0.74577 0.60482,-1.35078 1.350754,-1.35078 h 21.014547 c 0.745914,0 1.350751,0.60501 1.350751,1.35078"
       style="fill:#fece2f;fill-opacity:1;fill-rule:nonzero;stroke:none;stroke-width:0.0352778"
       id="path25" />
    <path
       d="m 74.763448,158.11933 0.196674,0.34043 c 0.372886,0.64593 0.151553,1.47214 -0.494595,1.84503 l -18.199066,10.50714 c -0.645865,0.37324 -1.472,0.15169 -1.845204,-0.49424 l -0.196356,-0.34043 c -0.373027,-0.64594 -0.15173,-1.47215 0.494453,-1.84503 L 72.91842,157.62508 c 0.646007,-0.37323 1.472142,-0.15169 1.845028,0.49425"
       style="fill:#fece2f;fill-opacity:1;fill-rule:nonzero;stroke:none;stroke-width:0.0352778"
       id="path27" />
    <path
       d="m 154.08652,158.45976 0.19615,-0.34043 c 0.37324,-0.64594 1.19944,-0.86748 1.84538,-0.49425 l 18.1991,10.50715 c 0.64629,0.37288 0.86713,1.19909 0.4946,1.84503 l -0.19685,0.34043 c -0.37254,0.64593 -1.19874,0.86748 -1.84503,0.49424 l -18.1991,-10.50714 c -0.64594,-0.37289 -0.86713,-1.1991 -0.49425,-1.84503"
       style="fill:#fece2f;fill-opacity:1;fill-rule:nonzero;stroke:none;stroke-width:0.0352778"
       id="path29" />
    <path
       d="m 160.32011,135.58739 v -0.393 c 0,-0.74577 0.60501,-1.35078 1.35114,-1.35078 h 21.01427 c 0.74612,0 1.35078,0.60501 1.35078,1.35078 v 0.393 c 0,0.74613 -0.60466,1.35079 -1.35078,1.35079 h -21.01427 c -0.74613,0 -1.35114,-0.60466 -1.35114,-1.35079"
       style="fill:#fece2f;fill-opacity:1;fill-rule:nonzero;stroke:none;stroke-width:0.0352778"
       id="path31" />
    <path
       d="m 154.28267,112.66246 -0.19615,-0.34008 c -0.37288,-0.64629 -0.15169,-1.47214 0.49425,-1.84538 l 18.1991,-10.507146 c 0.64629,-0.373239 1.47249,-0.152047 1.84503,0.494246 l 0.19685,0.34043 c 0.37253,0.64593 0.15169,1.47214 -0.4946,1.84503 l -18.1991,10.50749 c -0.64594,0.37289 -1.47214,0.15134 -1.84538,-0.49459"
       style="fill:#fece2f;fill-opacity:1;fill-rule:nonzero;stroke:none;stroke-width:0.0352778"
       id="path33" />
    <path
       d="m 137.59205,95.827534 -0.34044,-0.196498 c -0.64593,-0.372886 -0.86748,-1.19874 -0.49459,-1.845029 L 147.26451,75.58689 c 0.37288,-0.646289 1.19909,-0.867481 1.84503,-0.494242 l 0.34043,0.196145 c 0.64593,0.373239 0.86748,1.199092 0.49424,1.845382 l -10.50714,18.199117 c -0.37324,0.645936 -1.19909,0.867481 -1.84502,0.494242"
       style="fill:#fece2f;fill-opacity:1;fill-rule:nonzero;stroke:none;stroke-width:0.0352778"
       id="path35" />
    <path
       d="m 146.89868,135.17993 c 0,8.18445 -3.03636,15.6577 -8.04298,21.35754 -4.55472,5.18654 -7.77911,11.32982 -9.53241,17.90455 h -6.46642 c 1.75648,-6.57473 4.97734,-12.71801 9.53241,-17.90455 5.0098,-5.69984 8.04615,-13.17309 8.04615,-21.35754 0,-9.38813 -1.30069,-18.38009 -5.10963,-24.80841 7.07708,5.93796 11.57288,14.84737 11.57288,24.80841"
       style="fill:#fece2f;fill-opacity:1;fill-rule:nonzero;stroke:none;stroke-width:0.0352778"
       id="path37" />
    <path
       d="m 140.43543,135.17993 c 0,8.18445 -3.03635,15.6577 -8.04615,21.35754 -4.55507,5.18654 -7.77593,11.32982 -9.53241,17.90455 H 99.722407 c -1.752953,-6.57473 -4.97452,-12.71554 -9.529234,-17.89538 -5.091995,-5.79403 -8.148814,-13.4232 -8.048978,-21.76923 0.214489,-17.55777 14.568312,-31.84422 32.126065,-31.97651 8.02005,-0.0586 15.37053,2.79576 21.05554,7.57062 3.80894,6.42832 5.10963,15.42028 5.10963,24.80841"
       style="fill:#fed947;fill-opacity:1;fill-rule:nonzero;stroke:none;stroke-width:0.0352778"
       id="path39" />
    <path
       d="m 127.59609,186.62274 c 0.40181,-0.4039 0.65017,-0.95744 0.65017,-1.57124 0,-0.92537 -0.56551,-1.71877 -1.3709,-2.05179 -0.21731,-0.0896 -0.35983,-0.30022 -0.35983,-0.53552 0,-0.23319 0.1397,-0.44521 0.35525,-0.53375 0.2734,-0.11219 0.51928,-0.27764 0.72531,-0.48366 0.40181,-0.40217 0.65017,-0.95956 0.65017,-1.57163 0,-1.05798 -0.73907,-1.9431 -1.73073,-2.165 -0.15734,-0.036 -0.32032,-0.055 -0.4893,-0.055 h -23.00606 c -0.16898,0 -0.33196,0.019 -0.4893,0.055 -0.41698,0.0928 -0.79057,0.30304 -1.08232,0.59549 -0.40217,0.40146 -0.65052,0.95709 -0.65052,1.56951 0,0.92534 0.56726,1.72015 1.37301,2.05317 0.21731,0.0896 0.35983,0.30057 0.35983,0.53552 0,0.23354 -0.1397,0.4452 -0.3556,0.53375 -0.27411,0.11254 -0.5207,0.27764 -0.72672,0.48366 -0.40217,0.40217 -0.65052,0.95568 -0.65052,1.57025 0,0.92523 0.56726,1.72008 1.37301,2.05275 0.21731,0.0899 0.35983,0.30095 0.35983,0.5359 0,0.23358 -0.1397,0.44524 -0.3556,0.53372 -0.27411,0.11257 -0.5207,0.27767 -0.72672,0.48369 -0.40217,0.4021 -0.65052,0.95744 -0.65052,1.56987 0,0.92533 0.56726,1.72021 1.37301,2.05313 0.21731,0.09 0.35983,0.30028 0.35983,0.53552 v 0.42125 h 0.0134 c 0.22048,2.2454 2.10926,4.00294 4.41325,4.00294 h 0.83679 c 0.19332,0 0.37465,0.0959 0.48083,0.25714 0.7941,1.20618 2.15724,2.00353 3.70911,2.00353 h 5.07647 c 1.55222,0 2.91536,-0.79735 3.70946,-2.00353 0.10619,-0.16122 0.28751,-0.25714 0.48048,-0.25714 h 0.83644 c 2.30399,0 4.19453,-1.75754 4.41537,-4.00294 h 0.013 v -0.42125 c 0,-0.23319 0.1397,-0.44486 0.35525,-0.53344 0.2734,-0.11247 0.51928,-0.27757 0.72531,-0.48355 0.40181,-0.40228 0.65017,-0.95928 0.65017,-1.57166 0,-0.92562 -0.56551,-1.7187 -1.3709,-2.05137 -0.21731,-0.09 -0.35983,-0.30025 -0.35983,-0.53563 0,-0.23385 0.1397,-0.44552 0.35525,-0.534 0.2734,-0.11218 0.51928,-0.27767 0.72531,-0.48369"
       style="fill:#666666;fill-opacity:1;fill-rule:nonzero;stroke:none;stroke-width:0.0352778"
       id="path41" />
    <path
       d="m 108.05608,197.13196 c 0.74471,1.40861 2.22391,2.36898 3.92818,2.36898 h 5.07647 c 1.70427,0 3.18382,-0.96037 3.92853,-2.36898 h -12.93318"
       style="fill:#262626;fill-opacity:1;fill-rule:nonzero;stroke:none;stroke-width:0.0352778"
       id="path43" />
    <path
       d="m 128.24626,179.87515 c 0,0.61207 -0.24836,1.16946 -0.65017,1.57163 -0.29175,0.29175 -0.66323,0.50235 -1.08056,0.59478 -0.15734,0.0363 -0.32032,0.0554 -0.4893,0.0554 h -23.00606 c -0.16898,0 -0.33196,-0.019 -0.4893,-0.0554 -0.99166,-0.22154 -1.73284,-1.10878 -1.73284,-2.16641 0,-0.61242 0.24835,-1.16805 0.65052,-1.56951 0.29175,-0.29245 0.66534,-0.50271 1.08232,-0.59549 0.15734,-0.036 0.32032,-0.055 0.4893,-0.055 h 23.00606 c 0.16898,0 0.33196,0.019 0.4893,0.055 0.99166,0.2219 1.73073,1.10702 1.73073,2.165"
       style="fill:#808080;fill-opacity:1;fill-rule:nonzero;stroke:none;stroke-width:0.0352778"
       id="path45" />
    <path
       d="m 128.24626,185.0515 c 0,0.6138 -0.24836,1.16734 -0.65017,1.57124 -0.29175,0.29199 -0.66323,0.50271 -1.08056,0.59517 -0.15734,0.0363 -0.32032,0.0554 -0.4893,0.0554 h -23.00606 c -0.16898,0 -0.33196,-0.0191 -0.4893,-0.0554 -0.99166,-0.222 -1.73284,-1.10889 -1.73284,-2.16641 0,-0.61457 0.24835,-1.16808 0.65052,-1.57025 0.29175,-0.29175 0.66534,-0.502 1.08232,-0.59514 0.15734,-0.036 0.32032,-0.0547 0.4893,-0.0547 h 23.00606 c 0.16898,0 0.33196,0.0187 0.4893,0.0547 0.99166,0.2219 1.73073,1.10737 1.73073,2.16539"
       style="fill:#808080;fill-opacity:1;fill-rule:nonzero;stroke:none;stroke-width:0.0352778"
       id="path47" />
    <path
       d="m 128.24626,190.22743 c 0,0.61238 -0.24836,1.16938 -0.65017,1.57166 -0.29175,0.29171 -0.66323,0.502 -1.08056,0.59503 -0.15734,0.0361 -0.32032,0.0547 -0.4893,0.0547 h -23.00606 c -0.16898,0 -0.33196,-0.0186 -0.4893,-0.0547 -0.99166,-0.22186 -1.73284,-1.10878 -1.73284,-2.16669 0,-0.61243 0.24835,-1.16777 0.65052,-1.56987 0.29175,-0.29174 0.66534,-0.50228 1.08232,-0.59517 0.15734,-0.036 0.32032,-0.0547 0.4893,-0.0547 h 23.00606 c 0.16898,0 0.33196,0.0187 0.4893,0.0547 0.99166,0.22186 1.73073,1.10712 1.73073,2.16504"
       style="fill:#808080;fill-opacity:1;fill-rule:nonzero;stroke:none;stroke-width:0.0352778"
       id="path49" />
    <path
       d="m 126.51553,193.1286 c -0.16863,2.29775 -2.08704,4.11167 -4.42842,4.11167 h -15.12958 c -2.34139,0 -4.25803,-1.81392 -4.42666,-4.11167 h 23.98466"
       style="fill:#808080;fill-opacity:1;fill-rule:nonzero;stroke:none;stroke-width:0.0352778"
       id="path51" />
    <path
       d="m 114.46111,135.65618 c -0.99413,0 -1.91064,0.26176 -2.42182,0.68898 -0.5267,0.43956 -0.76623,1.27388 -0.61101,2.12513 0.16969,0.92851 0.74542,1.79106 1.22802,2.4384 l 0.0529,0.0709 c 0.60042,0.8054 1.1885,1.59421 1.81292,2.33398 0.62442,-0.73942 1.21215,-1.52788 1.81222,-2.33257 l 0.054,-0.0723 c 0.48224,-0.6477 1.05798,-1.50989 1.22802,-2.4384 0.15486,-0.8516 -0.0847,-1.68592 -0.61066,-2.12513 -0.52388,-0.43745 -1.47461,-0.69674 -2.47439,-0.68827 z m 13.46235,8.11496 c -0.18944,0 -0.36053,0.10724 -0.47237,0.19932 -0.58067,0.4773 -1.12994,1.34831 -1.45062,2.00377 -0.17109,0.35031 -0.33231,0.70521 -0.48577,1.06469 0.8576,-0.17568 1.70603,-0.46355 2.35232,-1.0153 0.35313,-0.30197 0.59619,-0.66781 0.68509,-1.03117 0.0868,-0.35666 0.0155,-0.74189 -0.18132,-0.98037 -0.14782,-0.1785 -0.30269,-0.24094 -0.44733,-0.24094 z m -26.80264,0 c -0.14429,0 -0.29951,0.0624 -0.44697,0.24094 -0.1972,0.23848 -0.26847,0.62371 -0.18133,0.98073 0.0885,0.36265 0.33196,0.72884 0.68474,1.03081 0.64629,0.55175 1.49472,0.83962 2.35233,1.0153 -0.15311,-0.35913 -0.31468,-0.71473 -0.48578,-1.06469 -0.32068,-0.65546 -0.86995,-1.52647 -1.45027,-2.00377 -0.11183,-0.0921 -0.28328,-0.19932 -0.47272,-0.19932 z m 8.28675,31.74226 c -0.81245,-6.48617 -1.88736,-14.10724 -3.70558,-21.44996 -0.46108,-1.86161 -0.93451,-3.68653 -1.55328,-5.43137 -1.2827,-0.18098 -2.78165,-0.51541 -3.92536,-1.49226 -0.593724,-0.50764 -0.993774,-1.12959 -1.15711,-1.79916 -0.198966,-0.81563 -0.02117,-1.66229 0.475192,-2.26343 0.768348,-0.93063 2.023538,-1.03187 2.984848,-0.24059 0.93275,0.76694 1.59527,1.99884 1.83657,2.49308 0.31326,0.641 0.59549,1.29399 0.85301,1.95651 2.27683,0.26246 4.17724,-0.0166 5.64692,-0.82762 1.02023,-0.56303 1.88242,-1.26224 2.66171,-2.04823 -0.69321,-0.81033 -1.33597,-1.67252 -1.99249,-2.55306 l -0.0529,-0.0713 c -0.5782,-0.77576 -1.27071,-1.82315 -1.49543,-3.05188 -0.25223,-1.3843 0.17463,-2.73156 1.11443,-3.51614 0.80433,-0.67169 2.05881,-1.04105 3.43323,-1.02941 1.3522,-0.0155 2.61056,0.35772 3.41525,1.02941 0.93944,0.78458 1.3663,2.13149 1.11371,3.51579 -0.22401,1.22837 -0.91651,2.27647 -1.49471,3.05223 l -0.054,0.0723 c -0.65652,0.88018 -1.29857,1.74202 -1.99178,2.552 0.77964,0.78599 1.64147,1.4852 2.66206,2.04788 1.47002,0.81139 3.3715,1.09043 5.64691,0.82797 0.25718,-0.66252 0.53905,-1.31551 0.85267,-1.95651 0.24165,-0.49424 0.90381,-1.7265 1.83691,-2.49308 0.96097,-0.79093 2.2165,-0.68968 2.9845,0.24059 0.49636,0.60114 0.67416,1.44745 0.47555,2.26307 -0.16334,0.67028 -0.56374,1.29223 -1.15782,1.79952 -1.14335,0.97685 -2.64231,1.31128 -3.92501,1.49226 -0.61877,1.74484 -1.0922,3.57011 -1.55293,5.43137 -1.81856,7.34519 -2.89383,14.9652 -3.70557,21.44996 l -1.45698,-0.18238 c 0.81739,-6.52746 1.89971,-14.20073 3.73733,-21.62036 0.4124,-1.66617 0.83573,-3.30624 1.36384,-4.89868 -2.27612,0.16193 -4.2291,-0.1965 -5.80919,-1.06786 -1.14759,-0.63323 -2.10009,-1.39912 -2.94993,-2.25037 -0.84984,0.85125 -1.80199,1.61714 -2.95028,2.25037 -1.57939,0.87136 -3.53095,1.23049 -5.80884,1.06786 0.52811,1.59209 0.95144,3.23251 1.36419,4.89868 1.83656,7.41716 2.91994,15.09149 3.73698,21.62036 l -1.45662,0.18238"
       style="fill:#262626;fill-opacity:1;fill-rule:nonzero;stroke:none;stroke-width:0.0352778"
       id="path53" />
    <path
       d="m 99.721701,174.44202 0.02505,0.0892 c 0.517879,1.95862 2.266949,3.33763 4.292599,3.33763 h 20.96382 c 2.02636,0 3.77649,-1.37936 4.29507,-3.33834 l 0.0247,-0.0885 H 99.721701"
       style="fill:#666666;fill-opacity:1;fill-rule:nonzero;stroke:none;stroke-width:0.0352778"
       id="path55" />
    <path
       d="m 94.086076,120.782 c 4.694414,-6.54262 12.177184,-10.50714 20.232864,-10.63979 1.13277,-0.0183 1.1363,-1.78047 0,-1.76177 -8.71643,0.14358 -16.687447,4.45065 -21.754395,11.5122 -0.662163,0.92287 0.865717,1.80341 1.521531,0.88936"
       style="fill:#fece2f;fill-opacity:1;fill-rule:nonzero;stroke:none;stroke-width:0.0352778"
       id="path57" />
    <path
       d="m 89.485148,134.85467 c 0.06209,-2.73826 0.537281,-5.37211 1.422047,-7.96291 0.367242,-1.07527 -1.334205,-1.53705 -1.698978,-0.46813 -0.932391,2.72979 -1.41993,5.54814 -1.484841,8.43104 -0.02575,1.13418 1.736372,1.13383 1.761772,0"
       style="fill:#fece2f;fill-opacity:1;fill-rule:nonzero;stroke:none;stroke-width:0.0352778"
       id="path59" />
  </g>
</svg>
